<mxfile host="Electron" modified="2023-06-27T12:12:56.895Z" agent="Mozilla/5.0 (Windows NT 10.0; Win64; x64) AppleWebKit/537.36 (KHTML, like Gecko) draw.io/21.2.8 Chrome/112.0.5615.165 Electron/24.2.0 Safari/537.36" etag="gQzxU-TrjZPK9ji4uP0Y" version="21.2.8" type="device">
  <diagram name="Page-1" id="6tgta4oha4WFMD-RV9gB">
    <mxGraphModel dx="1300" dy="840" grid="1" gridSize="10" guides="1" tooltips="1" connect="1" arrows="1" fold="1" page="1" pageScale="1" pageWidth="850" pageHeight="1100" math="0" shadow="0">
      <root>
        <mxCell id="0" />
        <mxCell id="1" parent="0" />
        <mxCell id="MXY0eOI428uYybuDjG1x-4" style="edgeStyle=orthogonalEdgeStyle;rounded=0;orthogonalLoop=1;jettySize=auto;html=1;exitX=0.5;exitY=1;exitDx=0;exitDy=0;" edge="1" parent="1" source="MXY0eOI428uYybuDjG1x-2" target="MXY0eOI428uYybuDjG1x-3">
          <mxGeometry relative="1" as="geometry" />
        </mxCell>
        <mxCell id="MXY0eOI428uYybuDjG1x-2" value="" style="ellipse;whiteSpace=wrap;html=1;" vertex="1" parent="1">
          <mxGeometry x="315" y="15" width="170" height="60" as="geometry" />
        </mxCell>
        <mxCell id="MXY0eOI428uYybuDjG1x-9" style="edgeStyle=orthogonalEdgeStyle;rounded=0;orthogonalLoop=1;jettySize=auto;html=1;exitX=1;exitY=0.5;exitDx=0;exitDy=0;entryX=0;entryY=0.5;entryDx=0;entryDy=0;" edge="1" parent="1" source="MXY0eOI428uYybuDjG1x-3" target="MXY0eOI428uYybuDjG1x-5">
          <mxGeometry relative="1" as="geometry" />
        </mxCell>
        <mxCell id="MXY0eOI428uYybuDjG1x-10" style="edgeStyle=orthogonalEdgeStyle;rounded=0;orthogonalLoop=1;jettySize=auto;html=1;exitX=0;exitY=0.5;exitDx=0;exitDy=0;entryX=1;entryY=0.5;entryDx=0;entryDy=0;" edge="1" parent="1" source="MXY0eOI428uYybuDjG1x-3" target="MXY0eOI428uYybuDjG1x-6">
          <mxGeometry relative="1" as="geometry" />
        </mxCell>
        <mxCell id="MXY0eOI428uYybuDjG1x-3" value="&lt;font style=&quot;font-size: 19px;&quot;&gt;Have An Account?&lt;/font&gt;" style="rhombus;whiteSpace=wrap;html=1;" vertex="1" parent="1">
          <mxGeometry x="327.5" y="200" width="145" height="120" as="geometry" />
        </mxCell>
        <mxCell id="MXY0eOI428uYybuDjG1x-75" style="edgeStyle=orthogonalEdgeStyle;rounded=0;orthogonalLoop=1;jettySize=auto;html=1;exitX=0.5;exitY=0;exitDx=0;exitDy=0;" edge="1" parent="1" source="MXY0eOI428uYybuDjG1x-5">
          <mxGeometry relative="1" as="geometry">
            <mxPoint x="400" y="130" as="targetPoint" />
            <Array as="points">
              <mxPoint x="670" y="130" />
            </Array>
          </mxGeometry>
        </mxCell>
        <mxCell id="MXY0eOI428uYybuDjG1x-5" value="" style="rounded=0;whiteSpace=wrap;html=1;" vertex="1" parent="1">
          <mxGeometry x="610" y="230" width="120" height="60" as="geometry" />
        </mxCell>
        <mxCell id="MXY0eOI428uYybuDjG1x-31" style="edgeStyle=orthogonalEdgeStyle;rounded=0;orthogonalLoop=1;jettySize=auto;html=1;exitX=0.5;exitY=1;exitDx=0;exitDy=0;" edge="1" parent="1" source="MXY0eOI428uYybuDjG1x-6" target="MXY0eOI428uYybuDjG1x-11">
          <mxGeometry relative="1" as="geometry" />
        </mxCell>
        <mxCell id="MXY0eOI428uYybuDjG1x-6" value="" style="rounded=0;whiteSpace=wrap;html=1;" vertex="1" parent="1">
          <mxGeometry x="60" y="230" width="120" height="60" as="geometry" />
        </mxCell>
        <mxCell id="MXY0eOI428uYybuDjG1x-39" style="edgeStyle=orthogonalEdgeStyle;rounded=0;orthogonalLoop=1;jettySize=auto;html=1;exitX=1;exitY=0.5;exitDx=0;exitDy=0;entryX=0.363;entryY=-0.009;entryDx=0;entryDy=0;entryPerimeter=0;" edge="1" parent="1" source="MXY0eOI428uYybuDjG1x-11" target="MXY0eOI428uYybuDjG1x-12">
          <mxGeometry relative="1" as="geometry" />
        </mxCell>
        <mxCell id="MXY0eOI428uYybuDjG1x-41" style="edgeStyle=orthogonalEdgeStyle;rounded=0;orthogonalLoop=1;jettySize=auto;html=1;exitX=0;exitY=0.5;exitDx=0;exitDy=0;entryX=0.5;entryY=0;entryDx=0;entryDy=0;" edge="1" parent="1" source="MXY0eOI428uYybuDjG1x-11" target="MXY0eOI428uYybuDjG1x-13">
          <mxGeometry relative="1" as="geometry">
            <Array as="points">
              <mxPoint x="290" y="450" />
              <mxPoint x="290" y="370" />
              <mxPoint x="160" y="370" />
            </Array>
          </mxGeometry>
        </mxCell>
        <mxCell id="MXY0eOI428uYybuDjG1x-11" value="&lt;font style=&quot;font-size: 20px;&quot;&gt;Is Admin?&lt;/font&gt;" style="rhombus;whiteSpace=wrap;html=1;" vertex="1" parent="1">
          <mxGeometry x="355" y="390" width="135" height="120" as="geometry" />
        </mxCell>
        <mxCell id="MXY0eOI428uYybuDjG1x-61" style="edgeStyle=orthogonalEdgeStyle;rounded=0;orthogonalLoop=1;jettySize=auto;html=1;exitX=0.5;exitY=1;exitDx=0;exitDy=0;entryX=0;entryY=0.5;entryDx=0;entryDy=0;" edge="1" parent="1" source="MXY0eOI428uYybuDjG1x-12" target="MXY0eOI428uYybuDjG1x-23">
          <mxGeometry relative="1" as="geometry">
            <Array as="points">
              <mxPoint x="715" y="610" />
              <mxPoint x="570" y="610" />
              <mxPoint x="570" y="980" />
            </Array>
          </mxGeometry>
        </mxCell>
        <mxCell id="MXY0eOI428uYybuDjG1x-67" style="edgeStyle=orthogonalEdgeStyle;rounded=0;orthogonalLoop=1;jettySize=auto;html=1;exitX=0;exitY=0.5;exitDx=0;exitDy=0;entryX=1;entryY=0.5;entryDx=0;entryDy=0;" edge="1" parent="1" source="MXY0eOI428uYybuDjG1x-12" target="MXY0eOI428uYybuDjG1x-34">
          <mxGeometry relative="1" as="geometry">
            <Array as="points">
              <mxPoint x="640" y="470" />
              <mxPoint x="560" y="470" />
              <mxPoint x="560" y="570" />
            </Array>
          </mxGeometry>
        </mxCell>
        <mxCell id="MXY0eOI428uYybuDjG1x-12" value="&lt;font style=&quot;font-size: 19px;&quot;&gt;Admin Dashboard&lt;/font&gt;" style="rounded=0;whiteSpace=wrap;html=1;" vertex="1" parent="1">
          <mxGeometry x="640" y="420" width="150" height="60" as="geometry" />
        </mxCell>
        <mxCell id="MXY0eOI428uYybuDjG1x-42" style="edgeStyle=orthogonalEdgeStyle;rounded=0;orthogonalLoop=1;jettySize=auto;html=1;exitX=1;exitY=0.5;exitDx=0;exitDy=0;entryX=0;entryY=0.5;entryDx=0;entryDy=0;" edge="1" parent="1" source="MXY0eOI428uYybuDjG1x-13" target="MXY0eOI428uYybuDjG1x-34">
          <mxGeometry relative="1" as="geometry">
            <Array as="points">
              <mxPoint x="220" y="460" />
              <mxPoint x="293" y="460" />
              <mxPoint x="293" y="570" />
            </Array>
          </mxGeometry>
        </mxCell>
        <mxCell id="MXY0eOI428uYybuDjG1x-43" style="edgeStyle=orthogonalEdgeStyle;rounded=0;orthogonalLoop=1;jettySize=auto;html=1;exitX=0.5;exitY=1;exitDx=0;exitDy=0;entryX=0.5;entryY=0;entryDx=0;entryDy=0;" edge="1" parent="1" source="MXY0eOI428uYybuDjG1x-13" target="MXY0eOI428uYybuDjG1x-17">
          <mxGeometry relative="1" as="geometry">
            <Array as="points">
              <mxPoint x="160" y="640" />
              <mxPoint x="90" y="640" />
            </Array>
          </mxGeometry>
        </mxCell>
        <mxCell id="MXY0eOI428uYybuDjG1x-13" value="&lt;font style=&quot;font-size: 19px;&quot;&gt;User Home&lt;/font&gt;" style="rounded=0;whiteSpace=wrap;html=1;" vertex="1" parent="1">
          <mxGeometry x="100" y="420" width="120" height="60" as="geometry" />
        </mxCell>
        <mxCell id="MXY0eOI428uYybuDjG1x-17" value="&lt;font style=&quot;font-size: 18px;&quot;&gt;Search Task&lt;/font&gt;" style="rounded=0;whiteSpace=wrap;html=1;" vertex="1" parent="1">
          <mxGeometry x="30" y="760" width="120" height="60" as="geometry" />
        </mxCell>
        <mxCell id="MXY0eOI428uYybuDjG1x-18" value="&lt;font style=&quot;font-size: 17px;&quot;&gt;Update Status&lt;/font&gt;" style="rounded=0;whiteSpace=wrap;html=1;" vertex="1" parent="1">
          <mxGeometry x="195" y="760" width="120" height="60" as="geometry" />
        </mxCell>
        <mxCell id="MXY0eOI428uYybuDjG1x-52" style="edgeStyle=orthogonalEdgeStyle;rounded=0;orthogonalLoop=1;jettySize=auto;html=1;exitX=0.5;exitY=1;exitDx=0;exitDy=0;entryX=0;entryY=0.75;entryDx=0;entryDy=0;" edge="1" parent="1" source="MXY0eOI428uYybuDjG1x-19" target="MXY0eOI428uYybuDjG1x-13">
          <mxGeometry relative="1" as="geometry">
            <Array as="points">
              <mxPoint x="425" y="920" />
              <mxPoint x="10" y="920" />
              <mxPoint x="10" y="465" />
            </Array>
          </mxGeometry>
        </mxCell>
        <mxCell id="MXY0eOI428uYybuDjG1x-19" value="&lt;font style=&quot;font-size: 16px;&quot;&gt;Add Comments&lt;/font&gt;" style="rounded=0;whiteSpace=wrap;html=1;" vertex="1" parent="1">
          <mxGeometry x="365" y="760" width="120" height="60" as="geometry" />
        </mxCell>
        <mxCell id="MXY0eOI428uYybuDjG1x-60" style="edgeStyle=orthogonalEdgeStyle;rounded=0;orthogonalLoop=1;jettySize=auto;html=1;exitX=1;exitY=0.5;exitDx=0;exitDy=0;" edge="1" parent="1" source="MXY0eOI428uYybuDjG1x-20">
          <mxGeometry relative="1" as="geometry">
            <mxPoint x="810" y="890" as="targetPoint" />
          </mxGeometry>
        </mxCell>
        <mxCell id="MXY0eOI428uYybuDjG1x-20" value="&lt;font style=&quot;font-size: 18px;&quot;&gt;Update Task&lt;/font&gt;" style="rounded=0;whiteSpace=wrap;html=1;" vertex="1" parent="1">
          <mxGeometry x="600" y="860" width="120" height="60" as="geometry" />
        </mxCell>
        <mxCell id="MXY0eOI428uYybuDjG1x-58" style="edgeStyle=orthogonalEdgeStyle;rounded=0;orthogonalLoop=1;jettySize=auto;html=1;exitX=1;exitY=0.5;exitDx=0;exitDy=0;" edge="1" parent="1" source="MXY0eOI428uYybuDjG1x-21">
          <mxGeometry relative="1" as="geometry">
            <mxPoint x="810" y="800" as="targetPoint" />
          </mxGeometry>
        </mxCell>
        <mxCell id="MXY0eOI428uYybuDjG1x-21" value="&lt;font style=&quot;font-size: 19px;&quot;&gt;View Task&lt;/font&gt;" style="rounded=0;whiteSpace=wrap;html=1;" vertex="1" parent="1">
          <mxGeometry x="600" y="770" width="120" height="60" as="geometry" />
        </mxCell>
        <mxCell id="MXY0eOI428uYybuDjG1x-59" style="edgeStyle=orthogonalEdgeStyle;rounded=0;orthogonalLoop=1;jettySize=auto;html=1;exitX=1;exitY=0.5;exitDx=0;exitDy=0;" edge="1" parent="1" source="MXY0eOI428uYybuDjG1x-22">
          <mxGeometry relative="1" as="geometry">
            <mxPoint x="810" y="710" as="targetPoint" />
          </mxGeometry>
        </mxCell>
        <mxCell id="MXY0eOI428uYybuDjG1x-22" value="&lt;font style=&quot;font-size: 20px;&quot;&gt;Add Task&lt;/font&gt;" style="rounded=0;whiteSpace=wrap;html=1;" vertex="1" parent="1">
          <mxGeometry x="600" y="680" width="120" height="60" as="geometry" />
        </mxCell>
        <mxCell id="MXY0eOI428uYybuDjG1x-55" style="edgeStyle=orthogonalEdgeStyle;rounded=0;orthogonalLoop=1;jettySize=auto;html=1;exitX=1;exitY=0.5;exitDx=0;exitDy=0;entryX=1;entryY=0.5;entryDx=0;entryDy=0;" edge="1" parent="1" source="MXY0eOI428uYybuDjG1x-23" target="MXY0eOI428uYybuDjG1x-12">
          <mxGeometry relative="1" as="geometry" />
        </mxCell>
        <mxCell id="MXY0eOI428uYybuDjG1x-23" value="&lt;font style=&quot;font-size: 18px;&quot;&gt;Delete task&lt;/font&gt;" style="rounded=0;whiteSpace=wrap;html=1;" vertex="1" parent="1">
          <mxGeometry x="600" y="950" width="120" height="60" as="geometry" />
        </mxCell>
        <mxCell id="MXY0eOI428uYybuDjG1x-25" value="&lt;font style=&quot;font-size: 24px;&quot;&gt;Start&lt;/font&gt;" style="text;html=1;strokeColor=none;fillColor=none;align=center;verticalAlign=middle;whiteSpace=wrap;rounded=0;" vertex="1" parent="1">
          <mxGeometry x="365" y="30" width="60" height="30" as="geometry" />
        </mxCell>
        <mxCell id="MXY0eOI428uYybuDjG1x-26" value="&lt;font style=&quot;font-size: 24px;&quot;&gt;Sign Up&lt;/font&gt;" style="text;html=1;strokeColor=none;fillColor=none;align=center;verticalAlign=middle;whiteSpace=wrap;rounded=0;" vertex="1" parent="1">
          <mxGeometry x="625" y="245" width="90" height="30" as="geometry" />
        </mxCell>
        <mxCell id="MXY0eOI428uYybuDjG1x-27" value="&lt;font style=&quot;font-size: 24px;&quot;&gt;Log In&lt;/font&gt;" style="text;html=1;strokeColor=none;fillColor=none;align=center;verticalAlign=middle;whiteSpace=wrap;rounded=0;" vertex="1" parent="1">
          <mxGeometry x="80" y="240" width="80" height="30" as="geometry" />
        </mxCell>
        <mxCell id="MXY0eOI428uYybuDjG1x-34" value="&lt;font style=&quot;font-size: 24px;&quot;&gt;Stop&lt;/font&gt;" style="ellipse;whiteSpace=wrap;html=1;" vertex="1" parent="1">
          <mxGeometry x="365" y="540" width="135" height="60" as="geometry" />
        </mxCell>
        <mxCell id="MXY0eOI428uYybuDjG1x-47" value="" style="endArrow=none;html=1;rounded=0;" edge="1" parent="1">
          <mxGeometry width="50" height="50" relative="1" as="geometry">
            <mxPoint x="160" y="640" as="sourcePoint" />
            <mxPoint x="430" y="640" as="targetPoint" />
            <Array as="points" />
          </mxGeometry>
        </mxCell>
        <mxCell id="MXY0eOI428uYybuDjG1x-49" value="" style="endArrow=classic;html=1;rounded=0;" edge="1" parent="1">
          <mxGeometry width="50" height="50" relative="1" as="geometry">
            <mxPoint x="430" y="640" as="sourcePoint" />
            <mxPoint x="430" y="760" as="targetPoint" />
          </mxGeometry>
        </mxCell>
        <mxCell id="MXY0eOI428uYybuDjG1x-50" value="" style="endArrow=classic;html=1;rounded=0;entryX=0.5;entryY=0;entryDx=0;entryDy=0;" edge="1" parent="1" target="MXY0eOI428uYybuDjG1x-18">
          <mxGeometry width="50" height="50" relative="1" as="geometry">
            <mxPoint x="255" y="640" as="sourcePoint" />
            <mxPoint x="300" y="680" as="targetPoint" />
          </mxGeometry>
        </mxCell>
        <mxCell id="MXY0eOI428uYybuDjG1x-53" value="" style="endArrow=classic;html=1;rounded=0;exitX=0.5;exitY=1;exitDx=0;exitDy=0;" edge="1" parent="1" source="MXY0eOI428uYybuDjG1x-18">
          <mxGeometry width="50" height="50" relative="1" as="geometry">
            <mxPoint x="190" y="710" as="sourcePoint" />
            <mxPoint x="255" y="920" as="targetPoint" />
          </mxGeometry>
        </mxCell>
        <mxCell id="MXY0eOI428uYybuDjG1x-54" value="" style="endArrow=classic;html=1;rounded=0;exitX=0.5;exitY=1;exitDx=0;exitDy=0;" edge="1" parent="1" source="MXY0eOI428uYybuDjG1x-17">
          <mxGeometry width="50" height="50" relative="1" as="geometry">
            <mxPoint x="190" y="710" as="sourcePoint" />
            <mxPoint x="90" y="920" as="targetPoint" />
          </mxGeometry>
        </mxCell>
        <mxCell id="MXY0eOI428uYybuDjG1x-63" value="" style="endArrow=classic;html=1;rounded=0;entryX=0;entryY=0.5;entryDx=0;entryDy=0;" edge="1" parent="1" target="MXY0eOI428uYybuDjG1x-22">
          <mxGeometry width="50" height="50" relative="1" as="geometry">
            <mxPoint x="570" y="710" as="sourcePoint" />
            <mxPoint x="240" y="660" as="targetPoint" />
          </mxGeometry>
        </mxCell>
        <mxCell id="MXY0eOI428uYybuDjG1x-64" value="" style="endArrow=classic;html=1;rounded=0;exitX=0;exitY=0.5;exitDx=0;exitDy=0;entryX=0;entryY=0.5;entryDx=0;entryDy=0;" edge="1" parent="1" target="MXY0eOI428uYybuDjG1x-21">
          <mxGeometry width="50" height="50" relative="1" as="geometry">
            <mxPoint x="570" y="800" as="sourcePoint" />
            <mxPoint x="580" y="720" as="targetPoint" />
          </mxGeometry>
        </mxCell>
        <mxCell id="MXY0eOI428uYybuDjG1x-66" value="" style="endArrow=classic;html=1;rounded=0;entryX=0;entryY=0.5;entryDx=0;entryDy=0;" edge="1" parent="1" target="MXY0eOI428uYybuDjG1x-20">
          <mxGeometry width="50" height="50" relative="1" as="geometry">
            <mxPoint x="570" y="890" as="sourcePoint" />
            <mxPoint x="610" y="810" as="targetPoint" />
            <Array as="points">
              <mxPoint x="590" y="890" />
            </Array>
          </mxGeometry>
        </mxCell>
        <mxCell id="MXY0eOI428uYybuDjG1x-68" value="&lt;font style=&quot;font-size: 15px;&quot;&gt;Yes&lt;/font&gt;" style="text;html=1;align=center;verticalAlign=middle;resizable=0;points=[];autosize=1;strokeColor=none;fillColor=none;" vertex="1" parent="1">
          <mxGeometry x="220" y="230" width="50" height="30" as="geometry" />
        </mxCell>
        <mxCell id="MXY0eOI428uYybuDjG1x-69" value="&lt;font style=&quot;font-size: 15px;&quot;&gt;No&lt;/font&gt;" style="text;html=1;align=center;verticalAlign=middle;resizable=0;points=[];autosize=1;strokeColor=none;fillColor=none;" vertex="1" parent="1">
          <mxGeometry x="520" y="230" width="40" height="30" as="geometry" />
        </mxCell>
        <mxCell id="MXY0eOI428uYybuDjG1x-70" value="&lt;font style=&quot;font-size: 15px;&quot;&gt;No&lt;/font&gt;" style="text;html=1;align=center;verticalAlign=middle;resizable=0;points=[];autosize=1;strokeColor=none;fillColor=none;" vertex="1" parent="1">
          <mxGeometry x="300" y="420" width="40" height="30" as="geometry" />
        </mxCell>
        <mxCell id="MXY0eOI428uYybuDjG1x-72" value="&lt;font style=&quot;font-size: 15px;&quot;&gt;Yes&lt;/font&gt;" style="text;html=1;align=center;verticalAlign=middle;resizable=0;points=[];autosize=1;strokeColor=none;fillColor=none;" vertex="1" parent="1">
          <mxGeometry x="485" y="418" width="50" height="30" as="geometry" />
        </mxCell>
      </root>
    </mxGraphModel>
  </diagram>
</mxfile>
